<svg width="280" height="58" viewBox="0 0 280 58" fill="none" xmlns="http://www.w3.org/2000/svg">
<path d="M89.5365 17.4191C88.8091 15.8261 88.0734 14.2411 87.3295 12.6641C86.5855 11.0711 85.8581 9.46224 85.1472 7.83741C84.9157 7.32766 84.6843 6.81791 84.4528 6.30816C84.2379 5.78248 84.023 5.2568 83.8081 4.73112C83.6097 4.20544 83.403 3.67976 83.1881 3.15408C83.1881 3.32931 83.1798 3.50453 83.1633 3.67976C83.1633 3.85499 83.1633 4.03021 83.1633 4.20544C83.1468 4.77891 83.122 5.47185 83.0889 6.28426C83.0724 7.08075 83.0476 7.94095 83.0145 8.86487C82.9814 9.77287 82.9566 10.6888 82.9401 11.6127C82.9236 12.5207 82.907 13.3809 82.8905 14.1934C82.874 14.5438 82.8574 14.8943 82.8409 15.2447C82.8409 15.5952 82.8244 15.9217 82.7913 16.2244C83.1054 16.2085 83.4113 16.1925 83.7089 16.1766C84.023 16.1607 84.3371 16.1447 84.6512 16.1288V17.1802H79.9147V16.3917C80.4272 16.3757 80.7992 16.2722 81.0306 16.081C81.2786 15.8739 81.4357 15.6031 81.5018 15.2686C81.5679 14.9341 81.6092 14.5757 81.6258 14.1934L82.097 3.29745C82.1135 2.97885 82.1218 2.66026 82.1218 2.34166C82.1383 2.02307 82.1548 1.71244 82.1713 1.40978C81.8738 1.42571 81.5762 1.44164 81.2786 1.45757C80.981 1.45757 80.6834 1.46553 80.3858 1.48146V0.453996H84.18L88.4454 9.94013C88.6603 10.418 88.867 10.8959 89.0654 11.3738C89.2803 11.8517 89.4952 12.3296 89.7101 12.8075C89.9416 13.2854 90.1648 13.7712 90.3797 14.265H90.4293C90.6112 13.8349 90.8261 13.3252 91.0741 12.7358C91.322 12.1305 91.5287 11.6127 91.694 11.1826C92.4215 9.43038 93.1737 7.67811 93.9507 5.92584C94.7443 4.15765 95.5213 2.3337 96.2818 0.453996H99.952V1.24252C99.5387 1.22659 99.1997 1.30624 98.9352 1.48146C98.6707 1.64076 98.4806 1.91156 98.3649 2.29388C98.2491 2.67619 98.2078 3.1939 98.2409 3.84702L98.8856 14.719C98.9187 14.9898 98.9352 15.2527 98.9352 15.5076C98.9352 15.7624 98.9352 15.9934 98.9352 16.2005C99.2328 16.1846 99.5304 16.1766 99.828 16.1766C100.142 16.1607 100.448 16.1447 100.746 16.1288V17.1802H95.1906V16.3917C95.7031 16.3757 96.0834 16.2562 96.3314 16.0332C96.5794 15.8102 96.7281 15.4916 96.7777 15.0775C96.8439 14.6633 96.8604 14.1535 96.8273 13.5482L96.3314 5.663C96.3148 5.40813 96.2983 5.15325 96.2818 4.89838C96.2652 4.6435 96.2487 4.38863 96.2322 4.13376C96.2156 3.87888 96.1991 3.62401 96.1826 3.36913C96.133 3.48064 96.0751 3.60011 96.009 3.72755C95.9594 3.85499 95.9098 3.99039 95.8602 4.13376L90.2805 17.4191H89.5365Z" fill="#815D5D"/>
<path d="M101.439 17.1802V16.3917C101.935 16.3917 102.315 16.2642 102.58 16.0093C102.844 15.7545 103.059 15.404 103.225 14.958C103.406 14.5119 103.613 13.9942 103.845 13.4048L108.953 0H109.548L115.078 13.596C115.211 13.9305 115.359 14.3606 115.525 14.8863C115.69 15.412 115.756 15.858 115.723 16.2244C116.004 16.2085 116.285 16.1925 116.566 16.1766C116.847 16.1607 117.128 16.1447 117.409 16.1288V17.1802H111.731V16.3917C112.359 16.3757 112.772 16.2403 112.97 15.9854C113.169 15.7306 113.243 15.4279 113.194 15.0775C113.144 14.727 113.061 14.4084 112.946 14.1217L112.078 11.8756L105.63 12.019L104.762 14.5757C104.646 14.958 104.539 15.2606 104.44 15.4837C104.357 15.7067 104.258 15.9536 104.142 16.2244C104.473 16.2085 104.795 16.1925 105.109 16.1766C105.44 16.1607 105.762 16.1447 106.076 16.1288V17.1802H101.439ZM106.002 10.9915H111.731L109.97 6.42763C109.788 5.93381 109.598 5.44795 109.399 4.97006C109.218 4.47624 109.036 3.98242 108.854 3.4886H108.804C108.639 3.93463 108.465 4.38066 108.284 4.8267C108.118 5.27273 107.945 5.72672 107.763 6.18869L106.002 10.9915Z" fill="#815D5D"/>
<path d="M118.475 17.1802V16.3917C119.103 16.3598 119.533 16.2244 119.765 15.9854C119.996 15.7306 120.12 15.3881 120.137 14.958C120.17 14.5119 120.186 14.0102 120.186 13.4526V3.13019C120.186 2.81159 120.195 2.50893 120.211 2.22219C120.228 1.91953 120.244 1.64872 120.261 1.40978C119.963 1.42571 119.666 1.44164 119.368 1.45757C119.07 1.4735 118.773 1.48943 118.475 1.50536V0.453996H129.982L130.106 4.63554H129.188C129.188 3.69569 129.039 2.98682 128.742 2.50893C128.444 2.01511 128.047 1.68855 127.552 1.52925C127.056 1.35402 126.493 1.27438 125.865 1.2903L124.055 1.33809C123.443 1.35402 123.022 1.49739 122.79 1.7682C122.559 2.02307 122.426 2.36556 122.393 2.79566C122.36 3.22576 122.344 3.71958 122.344 4.27712V14.3367C122.344 14.7668 122.336 15.1412 122.319 15.4598C122.319 15.7624 122.302 16.0173 122.269 16.2244C122.55 16.2085 122.831 16.2005 123.113 16.2005C123.394 16.1846 123.675 16.1686 123.956 16.1527C124.237 16.1368 124.518 16.1288 124.799 16.1288V17.1802H118.475Z" fill="#815D5D"/>
<path d="M130.548 17.1802V16.3917C131.044 16.3917 131.425 16.2642 131.689 16.0093C131.954 15.7545 132.169 15.404 132.334 14.958C132.516 14.5119 132.722 13.9942 132.954 13.4048L138.062 0H138.658L144.188 13.596C144.32 13.9305 144.469 14.3606 144.634 14.8863C144.799 15.412 144.866 15.858 144.832 16.2244C145.114 16.2085 145.395 16.1925 145.676 16.1766C145.957 16.1607 146.238 16.1447 146.519 16.1288V17.1802H140.84V16.3917C141.468 16.3757 141.881 16.2403 142.08 15.9854C142.278 15.7306 142.353 15.4279 142.303 15.0775C142.253 14.727 142.171 14.4084 142.055 14.1217L141.187 11.8756L134.739 12.019L133.871 14.5757C133.756 14.958 133.648 15.2606 133.549 15.4837C133.466 15.7067 133.367 15.9536 133.252 16.2244C133.582 16.2085 133.905 16.1925 134.219 16.1766C134.549 16.1607 134.872 16.1447 135.186 16.1288V17.1802H130.548ZM135.111 10.9915H140.84L139.079 6.42763C138.897 5.93381 138.707 5.44795 138.509 4.97006C138.327 4.47624 138.145 3.98242 137.963 3.4886H137.914C137.748 3.93463 137.575 4.38066 137.393 4.8267C137.228 5.27273 137.054 5.72672 136.872 6.18869L135.111 10.9915Z" fill="#815D5D"/>
<path d="M153.983 17.5625C153.106 17.5625 152.255 17.435 151.428 17.1802C150.618 16.9253 149.858 16.543 149.147 16.0332C148.452 15.5076 147.808 14.8544 147.213 14.0739L147.857 13.5721C148.535 14.4642 149.37 15.1651 150.362 15.6748C151.354 16.1686 152.379 16.4155 153.437 16.4155C154.264 16.4155 155.016 16.2642 155.694 15.9615C156.388 15.6589 156.942 15.2049 157.355 14.5996C157.785 13.9942 158 13.2455 158 12.3535C158 11.5889 157.835 10.9517 157.504 10.4419C157.173 9.93216 156.661 9.54985 155.966 9.29497C155.289 9.02417 154.429 8.8808 153.387 8.86487L151.453 8.88877V7.8852H153.561C154.503 7.86927 155.239 7.69404 155.768 7.35952C156.314 7.00906 156.694 6.56303 156.909 6.02142C157.14 5.47981 157.256 4.90634 157.256 4.30102C157.256 3.12222 156.958 2.28591 156.363 1.79209C155.768 1.29827 155.041 1.05136 154.181 1.05136C152.809 1.05136 151.751 1.42571 151.007 2.1744C150.263 2.90717 149.701 4.03021 149.32 5.54353H148.428V0.238945H149.767L149.643 1.52925C150.122 1.19473 150.593 0.923922 151.056 0.716837C151.519 0.493821 152.007 0.334524 152.519 0.238945C153.049 0.127438 153.627 0.0716841 154.255 0.0716841C155.33 0.0716841 156.264 0.238946 157.058 0.573469C157.851 0.907992 158.463 1.37792 158.893 1.98325C159.339 2.58857 159.554 3.31338 159.537 4.15765C159.521 5.0975 159.174 5.94177 158.496 6.69047C157.818 7.43917 156.801 7.93299 155.446 8.17193V8.24361C157.115 8.32326 158.364 8.75336 159.19 9.53392C160.033 10.3145 160.455 11.2623 160.455 12.3774C160.455 13.2376 160.273 13.9942 159.909 14.6473C159.546 15.2845 159.058 15.8261 158.446 16.2722C157.835 16.7023 157.14 17.0209 156.363 17.228C155.603 17.451 154.809 17.5625 153.983 17.5625Z" fill="#815D5D"/>
<path d="M168.373 1.24252C167.761 1.25845 167.331 1.39385 167.083 1.64872C166.852 1.9036 166.72 2.24609 166.686 2.67619C166.67 3.10629 166.662 3.60807 166.662 4.18154V14.3367C166.662 14.7668 166.653 15.1412 166.637 15.4598C166.637 15.7624 166.62 16.0173 166.587 16.2244C166.885 16.2085 167.182 16.1925 167.48 16.1766C167.778 16.1607 168.075 16.1447 168.373 16.1288V17.1802H162.793V16.3917C163.421 16.3598 163.851 16.2244 164.083 15.9854C164.314 15.7306 164.438 15.3881 164.455 14.958C164.488 14.5119 164.504 14.0102 164.504 13.4526V3.13019C164.504 2.81159 164.512 2.50893 164.529 2.22219C164.546 1.91953 164.562 1.64872 164.579 1.40978C164.281 1.42571 163.983 1.44164 163.686 1.45757C163.388 1.4735 163.091 1.48943 162.793 1.50536V0.453996H168.373V1.24252ZM179.656 1.24252C179.044 1.25845 178.615 1.39385 178.367 1.64872C178.135 1.9036 178.003 2.24609 177.97 2.67619C177.953 3.10629 177.945 3.60807 177.945 4.18154V14.3367C177.945 14.7668 177.937 15.1412 177.92 15.4598C177.92 15.7624 177.904 16.0173 177.871 16.2244C178.168 16.2085 178.466 16.1925 178.763 16.1766C179.061 16.1607 179.359 16.1447 179.656 16.1288V17.1802H174.076V16.3917C174.705 16.3598 175.135 16.2244 175.366 15.9854C175.597 15.7306 175.721 15.3881 175.738 14.958C175.771 14.5119 175.788 14.0102 175.788 13.4526V3.13019C175.788 2.81159 175.796 2.50893 175.812 2.22219C175.829 1.91953 175.845 1.64872 175.862 1.40978C175.564 1.42571 175.267 1.44164 174.969 1.45757C174.672 1.4735 174.374 1.48943 174.076 1.50536V0.453996H179.656V1.24252ZM176.408 1.62483L177.102 2.26998L165.744 15.9377L164.975 15.2447L176.408 1.62483Z" fill="#815D5D"/>
<path d="M182.385 17.1802V16.3917C183.013 16.3598 183.443 16.2244 183.674 15.9854C183.906 15.7306 184.03 15.3881 184.046 14.958C184.08 14.5119 184.096 14.0102 184.096 13.4526V3.13019C184.096 2.81159 184.104 2.50893 184.121 2.22219C184.137 1.91953 184.154 1.64872 184.17 1.40978C183.873 1.42571 183.575 1.44164 183.278 1.45757C182.98 1.4735 182.683 1.48943 182.385 1.50536V0.453996H187.965V1.24252C187.353 1.25845 186.923 1.39385 186.675 1.64872C186.444 1.9036 186.311 2.24609 186.278 2.67619C186.262 3.10629 186.254 3.60807 186.254 4.18154V8.14804H195.131V3.13019C195.131 2.81159 195.14 2.50893 195.156 2.22219C195.173 1.91953 195.189 1.64872 195.206 1.40978C194.908 1.42571 194.611 1.44164 194.313 1.45757C194.016 1.4735 193.718 1.48943 193.42 1.50536V0.453996H199V1.24252C198.388 1.25845 197.959 1.39385 197.711 1.64872C197.479 1.9036 197.347 2.24609 197.314 2.67619C197.297 3.10629 197.289 3.60807 197.289 4.18154V14.3367C197.289 14.7668 197.281 15.1412 197.264 15.4598C197.264 15.7624 197.248 16.0173 197.215 16.2244C197.512 16.2085 197.81 16.1925 198.107 16.1766C198.405 16.1607 198.702 16.1447 199 16.1288V17.1802H193.42V16.3917C194.049 16.3598 194.478 16.2244 194.71 15.9854C194.941 15.7306 195.065 15.3881 195.082 14.958C195.115 14.5119 195.131 14.0102 195.131 13.4526V9.10382L186.254 9.1994V14.3367C186.254 14.7668 186.245 15.1412 186.229 15.4598C186.229 15.7624 186.212 16.0173 186.179 16.2244C186.477 16.2085 186.774 16.1925 187.072 16.1766C187.369 16.1607 187.667 16.1447 187.965 16.1288V17.1802H182.385Z" fill="#815D5D"/>
<path d="M56.4468 33.7869L57.3395 34.4241C57.0971 34.7214 56.8436 35.1462 56.5791 35.6984C56.3145 36.2507 56.1051 36.856 55.9508 37.5144C55.7965 38.1728 55.7524 38.8313 55.8186 39.4897C55.9729 39.426 56.1162 39.3835 56.2484 39.3623C56.3807 39.3198 56.5129 39.2985 56.6452 39.2985C57.0861 39.2985 57.4498 39.4472 57.7363 39.7446C58.0229 40.0419 58.1662 40.4136 58.1662 40.8597C58.1662 41.4544 57.9898 41.911 57.6371 42.2296C57.2844 42.5482 56.8546 42.7075 56.3476 42.7075C55.5981 42.7075 55.014 42.4314 54.5952 41.8792C54.1984 41.3057 54 40.6154 54 39.8083C54 39.2561 54.0992 38.6083 54.2976 37.8649C54.518 37.1002 54.8046 36.3462 55.1573 35.6029C55.532 34.8595 55.9618 34.2541 56.4468 33.7869ZM62.2662 33.7869L63.159 34.4241C62.9165 34.7214 62.663 35.1462 62.3985 35.6984C62.134 36.2507 61.9245 36.856 61.7702 37.5144C61.6159 38.1728 61.5719 38.8313 61.638 39.4897C61.7923 39.426 61.9356 39.3835 62.0678 39.3623C62.2001 39.3198 62.3323 39.2985 62.4646 39.2985C62.9055 39.2985 63.2692 39.4472 63.5557 39.7446C63.8423 40.0419 63.9856 40.4136 63.9856 40.8597C63.9856 41.4544 63.8092 41.911 63.4565 42.2296C63.1039 42.5482 62.674 42.7075 62.167 42.7075C61.4175 42.7075 60.8334 42.4314 60.4146 41.8792C60.0178 41.3057 59.8194 40.6154 59.8194 39.8083C59.8194 39.2561 59.9186 38.6083 60.117 37.8649C60.3374 37.1002 60.624 36.3462 60.9767 35.6029C61.3514 34.8595 61.7813 34.2541 62.2662 33.7869Z" fill="#815D5D"/>
<path d="M85.6051 42.4208C85.583 41.1676 85.4508 40.1269 85.2083 39.2985C84.9658 38.4702 84.536 37.8543 83.9188 37.4507C83.3236 37.0259 82.4529 36.8241 81.3067 36.8454H78.4961L78.4631 54.2087C78.4631 54.7822 78.4521 55.2813 78.43 55.7061C78.43 56.1097 78.408 56.4495 78.3639 56.7256C78.8268 56.7044 79.2787 56.6831 79.7195 56.6619C80.1825 56.6407 80.6454 56.6194 81.1083 56.5982V58H73.338V56.9486C74.1757 56.9062 74.7378 56.715 75.0243 56.3752C75.3329 56.0353 75.4983 55.5787 75.5203 55.0052C75.5644 54.4105 75.5864 53.7521 75.5864 53.0299L75.6195 36.8772L72.2138 36.9091C70.8251 36.9091 69.8442 37.3551 69.2711 38.2472C68.6979 39.1392 68.4114 40.5304 68.4114 42.4208H67.188L67.3864 35.6984H86.6632L86.8616 42.4208H85.6051Z" fill="#815D5D"/>
<path d="M86.6048 58V56.9486C87.2661 56.9486 87.7731 56.7787 88.1258 56.4389C88.4785 56.0991 88.765 55.6318 88.9855 55.0371C89.2279 54.4424 89.5035 53.7521 89.8121 52.9662L96.6234 35.0931H97.417L104.79 53.2211C104.967 53.6671 105.165 54.2406 105.386 54.9415C105.606 55.6424 105.694 56.2371 105.65 56.7256C106.025 56.7044 106.4 56.6831 106.774 56.6619C107.149 56.6407 107.524 56.6194 107.899 56.5982V58H100.327V56.9486C101.164 56.9274 101.715 56.7469 101.98 56.407C102.244 56.0672 102.344 55.6636 102.278 55.1964C102.211 54.7291 102.101 54.3043 101.947 53.922L100.79 50.9272L92.1927 51.1184L91.0355 54.5273C90.8812 55.0371 90.7379 55.4406 90.6056 55.738C90.4954 56.0353 90.3632 56.3646 90.2089 56.7256C90.6497 56.7044 91.0796 56.6831 91.4984 56.6619C91.9392 56.6407 92.3691 56.6194 92.7879 56.5982V58H86.6048ZM92.6887 49.7484H100.327L97.9791 43.6633C97.7366 43.0049 97.4831 42.357 97.2186 41.7199C96.9761 41.0614 96.7336 40.403 96.4912 39.7446H96.425C96.2046 40.3393 95.9732 40.934 95.7307 41.5287C95.5102 42.1234 95.2788 42.7287 95.0363 43.3447L92.6887 49.7484Z" fill="#815D5D"/>
<path d="M125.838 42.4208C125.816 41.1676 125.684 40.1269 125.442 39.2985C125.199 38.4702 124.769 37.8543 124.152 37.4507C123.557 37.0259 122.686 36.8241 121.54 36.8454H118.729L118.696 54.2087C118.696 54.7822 118.685 55.2813 118.663 55.7061C118.663 56.1097 118.641 56.4495 118.597 56.7256C119.06 56.7044 119.512 56.6831 119.953 56.6619C120.416 56.6407 120.879 56.6194 121.341 56.5982V58H113.571V56.9486C114.409 56.9062 114.971 56.715 115.258 56.3752C115.566 56.0353 115.731 55.5787 115.754 55.0052C115.798 54.4105 115.82 53.7521 115.82 53.0299L115.853 36.8772L112.447 36.9091C111.058 36.9091 110.077 37.3551 109.504 38.2472C108.931 39.1392 108.645 40.5304 108.645 42.4208H107.421L107.62 35.6984H126.896L127.095 42.4208H125.838Z" fill="#815D5D"/>
<path d="M137.102 36.7498C136.286 36.771 135.713 36.9516 135.382 37.2914C135.074 37.6312 134.897 38.0879 134.853 38.6614C134.831 39.2348 134.82 39.9039 134.82 40.6685V45.0332L137.499 44.9377C139.328 44.8952 140.849 45.0226 142.062 45.32C143.296 45.5961 144.288 46.0209 145.037 46.5943C145.787 47.1678 146.316 47.8475 146.624 48.6333C146.955 49.4192 147.12 50.2794 147.12 51.214C147.12 52.7007 146.779 53.9539 146.095 54.9734C145.412 55.9716 144.486 56.7256 143.318 57.2354C142.15 57.7451 140.816 58 139.317 58H129.662V56.9486C130.478 56.9274 131.04 56.7575 131.348 56.4389C131.657 56.0991 131.833 55.6424 131.878 55.0689C131.922 54.4742 131.944 53.7946 131.944 53.0299V39.2667C131.944 38.8419 131.955 38.4383 131.977 38.056C131.999 37.6525 132.021 37.2914 132.043 36.9728C131.646 36.994 131.249 37.0153 130.853 37.0365C130.456 37.0578 130.059 37.079 129.662 37.1002V35.6984H137.102V36.7498ZM134.82 54.2406C134.82 54.8141 134.809 55.3026 134.787 55.7061C134.787 56.1097 134.765 56.4495 134.721 56.7256C135.074 56.7469 135.493 56.7681 135.978 56.7893C136.485 56.7893 136.947 56.7893 137.366 56.7893C137.807 56.7893 138.094 56.7893 138.226 56.7893C139.923 56.7893 141.29 56.3539 142.326 55.4831C143.384 54.6123 143.913 53.2317 143.913 51.3414C143.913 49.9821 143.649 48.9307 143.12 48.1873C142.591 47.4439 141.896 46.9236 141.036 46.6262C140.177 46.3076 139.24 46.1483 138.226 46.1483C137.565 46.1483 136.959 46.1589 136.407 46.1802C135.878 46.1802 135.349 46.2014 134.82 46.2439V54.2406Z" fill="#815D5D"/>
<path d="M148.914 58V56.9486C149.531 56.9486 150.038 56.8424 150.435 56.63C150.853 56.3964 151.239 56.0566 151.592 55.6105C151.967 55.1433 152.385 54.5804 152.848 53.922L155.394 50.2263C155.813 49.6528 156.21 49.2068 156.585 48.8882C156.959 48.5696 157.411 48.336 157.94 48.1873C156.353 47.8262 155.031 47.1147 153.973 46.0527C152.915 44.9695 152.385 43.5252 152.385 41.7199C152.385 40.4667 152.65 39.3941 153.179 38.5021C153.73 37.5888 154.557 36.8985 155.659 36.4312C156.761 35.9427 158.139 35.6984 159.792 35.6984H168.62V36.7498C167.827 36.771 167.265 36.9516 166.934 37.2914C166.625 37.61 166.449 38.056 166.405 38.6295C166.361 39.203 166.339 39.8826 166.339 40.6685V54.4317C166.339 54.8565 166.328 55.2707 166.306 55.6743C166.306 56.0566 166.284 56.407 166.24 56.7256L168.62 56.5982V58H161.181V56.9486C162.018 56.9062 162.592 56.7256 162.9 56.407C163.209 56.0672 163.374 55.6105 163.396 55.0371C163.44 54.4424 163.462 53.7733 163.462 53.0299V48.6652L160.519 48.6971C160.035 48.9732 159.605 49.3024 159.23 49.6847C158.877 50.067 158.58 50.4387 158.337 50.7998L155.857 54.4636C155.549 54.9309 155.218 55.4088 154.865 55.8973C154.513 56.3858 154.16 56.8212 153.807 57.2035C153.477 57.5646 153.146 57.8301 152.815 58H148.914ZM160.883 47.5183C161.522 47.5183 162.085 47.5076 162.569 47.4864C163.054 47.4652 163.352 47.4439 163.462 47.4227V39.4578C163.462 38.8844 163.473 38.3959 163.495 37.9923C163.517 37.5888 163.539 37.2489 163.561 36.9728C163.054 36.9303 162.569 36.9091 162.107 36.9091C161.666 36.9091 161.258 36.9091 160.883 36.9091C159.869 36.9091 158.954 37.1002 158.139 37.4826C157.323 37.8436 156.673 38.4065 156.188 39.1711C155.725 39.9145 155.494 40.8703 155.494 42.0384C155.494 43.1004 155.736 44.0456 156.221 44.8739C156.706 45.7023 157.356 46.3501 158.172 46.8174C158.987 47.2846 159.891 47.5183 160.883 47.5183Z" fill="#815D5D"/>
<path d="M172.253 58V56.9486C173.09 56.9062 173.663 56.7256 173.972 56.407C174.281 56.0672 174.446 55.6105 174.468 55.0371C174.512 54.4424 174.534 53.7733 174.534 53.0299V39.2667C174.534 38.8419 174.545 38.4383 174.567 38.056C174.589 37.6525 174.611 37.2914 174.633 36.9728C174.236 36.994 173.84 37.0153 173.443 37.0365C173.046 37.0578 172.649 37.079 172.253 37.1002V35.6984H179.692V36.7498C178.877 36.771 178.303 36.9516 177.973 37.2914C177.664 37.6312 177.488 38.0879 177.444 38.6614C177.422 39.2348 177.411 39.9039 177.411 40.6685V45.9572H189.248V39.2667C189.248 38.8419 189.259 38.4383 189.281 38.056C189.303 37.6525 189.325 37.2914 189.347 36.9728C188.95 36.994 188.554 37.0153 188.157 37.0365C187.76 37.0578 187.363 37.079 186.966 37.1002V35.6984H194.406V36.7498C193.59 36.771 193.017 36.9516 192.687 37.2914C192.378 37.6312 192.202 38.0879 192.158 38.6614C192.136 39.2348 192.125 39.9039 192.125 40.6685V54.2087C192.125 54.7822 192.114 55.2813 192.091 55.7061C192.091 56.1097 192.069 56.4495 192.025 56.7256C192.422 56.7044 192.819 56.6831 193.216 56.6619C193.612 56.6407 194.009 56.6194 194.406 56.5982V58H186.966V56.9486C187.804 56.9062 188.377 56.7256 188.686 56.407C188.994 56.0672 189.16 55.6105 189.182 55.0371C189.226 54.4424 189.248 53.7733 189.248 53.0299V47.2315L177.411 47.359V54.2087C177.411 54.7822 177.4 55.2813 177.378 55.7061C177.378 56.1097 177.356 56.4495 177.311 56.7256C177.708 56.7044 178.105 56.6831 178.502 56.6619C178.899 56.6407 179.295 56.6194 179.692 56.5982V58H172.253Z" fill="#815D5D"/>
<path d="M196.035 58V56.9486C196.697 56.9486 197.204 56.7787 197.556 56.4389C197.909 56.0991 198.195 55.6318 198.416 55.0371C198.658 54.4424 198.934 53.7521 199.243 52.9662L206.054 35.0931H206.847L214.221 53.2211C214.397 53.6671 214.596 54.2406 214.816 54.9415C215.037 55.6424 215.125 56.2371 215.081 56.7256C215.455 56.7044 215.83 56.6831 216.205 56.6619C216.58 56.6407 216.954 56.6194 217.329 56.5982V58H209.757V56.9486C210.595 56.9274 211.146 56.7469 211.41 56.407C211.675 56.0672 211.774 55.6636 211.708 55.1964C211.642 54.7291 211.532 54.3043 211.377 53.922L210.22 50.9272L201.623 51.1184L200.466 54.5273C200.312 55.0371 200.168 55.4406 200.036 55.738C199.926 56.0353 199.794 56.3646 199.639 56.7256C200.08 56.7044 200.51 56.6831 200.929 56.6619C201.37 56.6407 201.8 56.6194 202.218 56.5982V58H196.035ZM202.119 49.7484H209.757L207.41 43.6633C207.167 43.0049 206.914 42.357 206.649 41.7199C206.407 41.0614 206.164 40.403 205.922 39.7446H205.855C205.635 40.3393 205.404 40.934 205.161 41.5287C204.941 42.1234 204.709 42.7287 204.467 43.3447L202.119 49.7484Z" fill="#815D5D"/>
<path d="M217.734 42.7075L216.841 42.0703C217.084 41.773 217.337 41.3482 217.602 40.7959C217.866 40.2437 218.075 39.6384 218.23 38.98C218.406 38.3003 218.45 37.6419 218.362 37.0047C218.208 37.0684 218.064 37.1215 217.932 37.164C217.8 37.1852 217.668 37.1958 217.535 37.1958C217.117 37.1958 216.753 37.0471 216.444 36.7498C216.158 36.4524 216.014 36.0807 216.014 35.6347C216.014 35.04 216.191 34.5834 216.543 34.2648C216.918 33.9462 217.348 33.7869 217.833 33.7869C218.604 33.7869 219.189 34.0736 219.585 34.6471C219.982 35.1993 220.181 35.879 220.181 36.6861C220.181 37.2171 220.07 37.8649 219.85 38.6295C219.652 39.3941 219.365 40.1481 218.99 40.8915C218.638 41.6137 218.219 42.219 217.734 42.7075ZM223.553 42.7075L222.66 42.0703C222.903 41.773 223.156 41.3482 223.421 40.7959C223.685 40.2437 223.895 39.6384 224.049 38.98C224.226 38.3003 224.27 37.6419 224.181 37.0047C224.027 37.0684 223.884 37.1215 223.752 37.164C223.619 37.1852 223.487 37.1958 223.355 37.1958C222.936 37.1958 222.572 37.0471 222.264 36.7498C221.977 36.4524 221.834 36.0807 221.834 35.6347C221.834 35.04 222.01 34.5834 222.363 34.2648C222.738 33.9462 223.167 33.7869 223.652 33.7869C224.424 33.7869 225.008 34.0736 225.405 34.6471C225.802 35.1993 226 35.879 226 36.6861C226 37.2171 225.89 37.8649 225.669 38.6295C225.471 39.3941 225.184 40.1481 224.81 40.8915C224.457 41.6137 224.038 42.219 223.553 42.7075Z" fill="#815D5D"/>
<path fill-rule="evenodd" clip-rule="evenodd" d="M280 30.256H238V29.256H280V30.256Z" fill="#C43B3B"/>
<path fill-rule="evenodd" clip-rule="evenodd" d="M42 30.256H0V29.256H42V30.256Z" fill="#C43B3B"/>
</svg>
